PathFileType	4	(X/Y/Z)	C:/Users/opensim2020/Desktop/walking_exp_matlab/subject02_walking14_straight_04.trc	
DataRate	CameraRate	NumFrames	NumMarkers	Units	OrigDataRate	OrigDataStartFrame	OrigNumFrames	
100.00	100.00	4	41	mm	100.00	1712	137	
Frame#	Time	LFHD			RFHD			LBHD			RBHD			C7			T10			CLAV			STRN			RBAK			LSHO			LUPA			LELB			LFRM			LWRA			LWRB			LFIN			RSHO			RUPA			RELB			RFRM			RWRA			RWRB			RFIN			LASI			RASI			LPSI			RPSI			LTHI			LKNE			LTIB			LANK			LHEE			LTOE			RTHI			RKNE			RTIB			RANK			RHEE			RTOE			*39			*40			
		X1	Y1	Z1	X2	Y2	Z2	X3	Y3	Z3	X4	Y4	Z4	X5	Y5	Z5	X6	Y6	Z6	X7	Y7	Z7	X8	Y8	Z8	X9	Y9	Z9	X10	Y10	Z10	X11	Y11	Z11	X12	Y12	Z12	X13	Y13	Z13	X14	Y14	Z14	X15	Y15	Z15	X16	Y16	Z16	X17	Y17	Z17	X18	Y18	Z18	X19	Y19	Z19	X20	Y20	Z20	X21	Y21	Z21	X22	Y22	Z22	X23	Y23	Z23	X24	Y24	Z24	X25	Y25	Z25	X26	Y26	Z26	X27	Y27	Z27	X28	Y28	Z28	X29	Y29	Z29	X30	Y30	Z30	X31	Y31	Z31	X32	Y32	Z32	X33	Y33	Z33	X34	Y34	Z34	X35	Y35	Z35	X36	Y36	Z36	X37	Y37	Z37	X38	Y38	Z38	X39	Y39	Z39	X40	Y40	Z40	X41	Y41	Z41	

35	0.340	-939.57648	447.76993	1760.13391	-1083.54163	456.51450	1752.59009	-928.68793	570.07623	1673.30200	-1071.34766	591.22070	1663.12598	-1002.38245	614.18549	1535.06726	-1007.77838	654.89752	1261.88708	-1011.30377	469.93304	1477.48865	-1032.47729	411.18204	1307.36255	-1061.67419	672.26630	1362.00098	-833.39038	519.40692	1509.94519	-752.41730	508.70825	1308.43347	-736.71228	499.99448	1169.01355	-725.50128	470.54895	1039.62256	-760.02948	400.01849	923.40186	-724.58740	443.71274	920.04089	-717.80609	413.96191	862.00867	-1195.29370	564.69061	1512.91052	-1277.55139	618.81207	1330.66418	-1309.02673	612.98615	1184.04370	-1327.48975	563.24475	1071.76648	-1305.85962	488.23145	958.40326	-1338.15747	533.42310	944.95435	-1334.58679	485.67310	887.96240	-905.10297	431.48065	996.17725	-1152.05371	457.39658	990.22607	-956.53986	641.02551	1053.28284	-1072.17529	658.61273	1054.42078	-858.21356	503.07870	676.59161	-900.35120	537.82220	477.71768	-907.01862	605.19153	293.75607	-956.94238	618.25110	73.95795	-1008.07611	656.86847	47.81113	-952.02655	462.52908	36.57220	-1235.06555	493.30157	690.28333	-1221.52771	449.57516	494.01712	-1206.25818	565.70654	351.54816	-1157.67737	663.87921	190.56253	-1089.84448	702.12000	153.57011	-1203.48730	570.99695	69.16131	-1017.27209	560.96979	1822.43030	-3357.44897	2845.99316	1034.63306 
36	0.350	-942.11646	434.46503	1759.82117	-1085.77136	443.44418	1752.06909	-930.80383	556.77710	1672.96399	-1072.74609	577.81061	1661.99463	-1004.04553	600.82959	1534.65979	-1008.48602	642.32831	1261.64795	-1012.79712	456.85791	1476.73572	-1033.04700	398.47815	1306.36707	-1062.43677	659.08923	1361.44031	-834.90930	505.81027	1509.90430	-754.40503	491.86557	1308.30872	-739.42920	480.35828	1168.53149	-731.52277	445.98630	1039.77417	-770.86316	372.10016	927.35413	-733.94604	414.19992	921.19537	-729.40234	381.74954	864.68280	-1197.24561	551.02637	1511.33838	-1279.02966	605.96332	1329.09351	-1308.98413	602.12164	1182.24048	-1327.03540	556.84753	1068.21570	-1304.18433	486.93439	951.56116	-1337.19519	532.32062	940.32690	-1332.30469	487.53278	880.79828	-904.27740	420.79318	994.86639	-1150.87402	443.78763	989.88574	-958.35620	629.34436	1052.63086	-1074.25061	646.30273	1054.16638	-859.29779	496.17587	676.01886	-900.90240	533.73914	477.34256	-907.24213	602.51129	293.97449	-957.03687	617.73920	74.33619	-1007.82800	656.51166	48.08285	-951.96021	462.35724	36.48355	-1236.70361	475.04633	691.67145	-1222.36499	427.55740	495.57309	-1209.33655	537.39124	347.15448	-1162.45789	626.91956	180.61479	-1095.18091	663.77283	140.72356	-1208.35864	526.34595	65.70111	-1020.27704	548.00702	1821.63184	-3357.41138	2845.95801	1034.53113 
37	0.360	-944.15363	421.74866	1759.46350	-1087.98975	430.23398	1751.08997	-932.93103	543.66217	1672.19116	-1075.20349	564.40912	1661.01257	-1005.65533	587.46051	1533.96155	-1009.29205	629.70929	1261.09070	-1014.27179	443.68689	1475.67859	-1033.70044	385.76871	1305.04419	-1063.50891	646.18683	1360.77002	-836.40509	491.97882	1509.44836	-756.21472	475.35037	1308.08093	-741.91901	461.00375	1167.90540	-737.48193	421.95493	1040.09937	-781.43341	344.60480	931.58838	-743.61163	384.91846	923.16333	-741.14355	350.18695	868.11804	-1199.07373	537.29028	1509.47217	-1280.44141	593.05939	1327.23511	-1309.01123	591.18060	1180.20508	-1326.14526	550.39124	1064.40906	-1302.70349	485.66730	945.03320	-1335.85913	531.01178	935.46252	-1330.50989	489.29572	874.13684	-903.31946	409.99954	993.23370	-1150.01624	430.19669	989.58075	-960.38110	617.93915	1051.78308	-1076.44849	633.92725	1053.55750	-860.33228	488.77499	675.43433	-901.58325	529.33112	476.93063	-907.70074	599.77051	294.22900	-957.35938	617.38599	74.62567	-1008.35352	656.85583	49.08696	-951.88129	462.13251	36.34017	-1238.26050	456.95300	692.87628	-1223.24866	406.15317	496.77118	-1212.58911	508.38910	342.06958	-1167.62817	589.30804	170.44168	-1101.26782	624.64221	127.85303	-1213.52588	481.27682	62.70315	-1022.37280	535.02307	1820.81152	-3355.37256	2846.63379	1034.50513 
38	0.370	-946.46490	408.51215	1758.62805	-1090.34717	416.93893	1749.83728	-935.25763	530.15564	1671.00452	-1076.95044	551.00464	1659.40906	-1007.29431	574.14136	1533.08972	-1010.31335	617.16528	1260.32568	-1015.91644	430.51108	1474.29309	-1034.31995	373.05859	1303.32617	-1064.48962	633.06964	1359.66028	-837.95483	478.08447	1508.72583	-757.89972	458.73734	1307.64258	-744.42224	441.58102	1167.14355	-743.58679	397.20819	1040.53455	-792.16541	316.81137	936.35645	-753.22931	356.10898	925.24622	-753.11053	318.63538	871.74176	-1201.04517	523.45020	1507.41187	-1281.96704	580.05420	1325.18286	-1308.99805	580.15631	1178.00049	-1325.90808	543.83704	1060.92407	-1301.63110	484.32703	938.79773	-1335.31860	529.94482	931.18597	-1329.18494	490.80502	868.05664	-902.52460	399.40326	991.41064	-1149.31641	416.72833	988.65540	-962.58881	606.50305	1050.68640	-1078.80994	621.60126	1052.69006	-861.62115	480.90543	674.65826	-902.36511	524.83026	476.41071	-908.35571	597.22186	294.53238	-957.81567	616.94397	74.99547	-1008.87085	656.49652	49.52868	-951.88782	461.86172	36.22181	-1239.78589	439.12018	693.83606	-1224.17468	385.39709	497.51791	-1215.81482	479.37314	336.72495	-1173.39001	550.82550	160.38782	-1107.82275	584.35394	114.96273	-1218.86548	435.74716	60.16727	-1025.58508	521.84869	1819.53479	-3356.82495	2846.13403	1034.44128 
